# xmcd
#
# Track frame offsets:
#	150
#	18270
#	49532
#	137323
#	160392
#	181372
#	202094
#
# Disc length: 2879 seconds
#
# Revision: 1
# Processed by: cddbd v1.5.2PL0 Copyright (c) Steve Scherf et al.
# Submitted via: audiograbber 1.83.01
#
DISCID=550b3d07
DTITLE=Grateful Dead - 72-12-15 Long Beach Arena, Long Beach CA
DYEAR=1900
DGENRE=
TTITLE0=BIODTL
TTITLE1=Loser
TTITLE2=Playing In The Band
TTITLE3=Casey Jones
TTITLE4=Greatest Story Ever Told
TTITLE5=Deal
TTITLE6=Me and My Uncle
EXTD=
EXTT0=
EXTT1=
EXTT2=
EXTT3=
EXTT4=
EXTT5=
EXTT6=
PLAYORDER=
